HIERARCHY
ROOT joint_Root
{
	OFFSET 0.0 0.0 0.0
	CHANNELS 6 Xposition Yposition Zposition Zrotation Xrotation Yrotation 
	JOINT Hips
	{
		OFFSET 4.5925 91.4895 -427.239
		CHANNELS 6 Xposition Yposition Zposition Zrotation Xrotation Yrotation 
		JOINT Spine
		{
			OFFSET 15.7357 0.0 0.0
			CHANNELS 6 Xposition Yposition Zposition Zrotation Xrotation Yrotation 
			JOINT Chest
			{
				OFFSET 8.98455 -0.406207 0.0
				CHANNELS 6 Xposition Yposition Zposition Zrotation Xrotation Yrotation 
				JOINT Neck
				{
					OFFSET 16.3773 0.0 0.0
					CHANNELS 6 Xposition Yposition Zposition Zrotation Xrotation Yrotation 
					JOINT Head
					{
						OFFSET 6.45672 0.0 0.0
						CHANNELS 6 Xposition Yposition Zposition Zrotation Xrotation Yrotation 
						End Site
						{
							OFFSET 0.0 0.0 0.0
						}
					}
				}
				JOINT Shoulder_L
				{
					OFFSET 12.9942 -0.242716 4.98039
					CHANNELS 6 Xposition Yposition Zposition Zrotation Xrotation Yrotation 
					JOINT UpperArm_L
					{
						OFFSET 5.34809 0.0 0.0
						CHANNELS 6 Xposition Yposition Zposition Zrotation Xrotation Yrotation 
						JOINT LowerArm_L
						{
							OFFSET 24.3286 1.87007e-05 0.0
							CHANNELS 6 Xposition Yposition Zposition Zrotation Xrotation Yrotation 
							JOINT Hand_L
							{
								OFFSET 22.2916 0.0 0.0
								CHANNELS 6 Xposition Yposition Zposition Zrotation Xrotation Yrotation 
								End Site
								{
									OFFSET 0.0 0.0 0.0
								}
							}
						}
					}
				}
				JOINT Shoulder_R
				{
					OFFSET 12.9945 -0.242716 -4.98039
					CHANNELS 6 Xposition Yposition Zposition Zrotation Xrotation Yrotation 
					JOINT UpperArm_R
					{
						OFFSET -5.34813 0.0 0.0
						CHANNELS 6 Xposition Yposition Zposition Zrotation Xrotation Yrotation 
						JOINT LowerArm_R
						{
							OFFSET -24.3289 0.000322201 0.0
							CHANNELS 6 Xposition Yposition Zposition Zrotation Xrotation Yrotation 
							JOINT Hand_R
							{
								OFFSET -22.2915 -0.000108084 0.0
								CHANNELS 6 Xposition Yposition Zposition Zrotation Xrotation Yrotation 
								End Site
								{
									OFFSET 0.0 0.0 0.0
								}
							}
						}
					}
				}
			}
		}
		JOINT UpperLeg_L
		{
			OFFSET -2.19248 -6.46944 0.0
			CHANNELS 6 Xposition Yposition Zposition Zrotation Xrotation Yrotation 
			JOINT LowerLeg_L
			{
				OFFSET 39.0811 0.0 -1.23785e-05
				CHANNELS 6 Xposition Yposition Zposition Zrotation Xrotation Yrotation 
				JOINT Foot_L
				{
					OFFSET 40.9854 0.0 -1.26872e-05
					CHANNELS 6 Xposition Yposition Zposition Zrotation Xrotation Yrotation 
					JOINT Toes_L
					{
						OFFSET 11.7543 0.0 0.0
						CHANNELS 6 Xposition Yposition Zposition Zrotation Xrotation Yrotation 
						End Site
						{
							OFFSET 0.0 0.0 0.0
						}
					}
				}
			}
		}
		JOINT UpperLeg_R
		{
			OFFSET -2.19251 6.46944 0.0
			CHANNELS 6 Xposition Yposition Zposition Zrotation Xrotation Yrotation 
			JOINT LowerLeg_R
			{
				OFFSET -39.0811 -0.00228153 -0.0401928
				CHANNELS 6 Xposition Yposition Zposition Zrotation Xrotation Yrotation 
				JOINT Foot_R
				{
					OFFSET -40.9854 0.0 0.0
					CHANNELS 6 Xposition Yposition Zposition Zrotation Xrotation Yrotation 
					JOINT Toes_R
					{
						OFFSET -11.7543 0.0 0.0
						CHANNELS 6 Xposition Yposition Zposition Zrotation Xrotation Yrotation 
						End Site
						{
							OFFSET 0.0 0.0 0.0
						}
					}
				}
			}
		}
	}
}
MOTION
Frames:	4
Frame Time:	0.0333333
0.000000 0.000000 0.000000 0.000000 0.000000 -0.000000 -94.182300 89.247300 189.664000 97.786800 85.076300 -6.373090 15.735700 0.000005 -0.000001 60.716300 85.028600 -58.632900 8.984550 -0.406207 -0.000000 1.005190 -4.984340 4.209270 16.377300 -0.000001 -0.000001 -4.333780 2.754510 1.285290 6.456720 -0.000001 -0.000000 -13.585000 6.509940 6.245170 12.994200 -0.242716 4.980390 -90.641400 2.589710 -76.084300 5.348090 -0.000007 -0.000001 -60.840900 19.152800 -26.460000 24.328600 0.000019 0.000005 11.463300 11.643400 -45.137100 22.291600 -0.000001 0.000005 17.980100 5.256860 1.250970 12.994500 -0.242716 -4.980390 87.536300 11.164200 -77.471500 -5.348130 -0.000001 -0.000004 -60.700900 12.812800 5.478570 -24.328900 0.000322 -0.000009 1.572880 8.279760 -10.803600 -22.291500 -0.000108 -0.000004 14.444600 5.307910 -0.150636 -2.192480 -6.469440 -0.000000 -171.607000 -2.871360 5.801270 39.081100 -0.000007 -0.000012 0.024996 -0.035750 34.959800 40.985400 -0.000006 -0.000013 5.231530 14.865300 -66.554900 11.754300 -0.000000 0.000003 -0.062801 -0.340785 -30.661000 -2.192510 6.469440 -0.000001 177.360000 18.432000 164.225000 -39.081100 -0.002282 -0.040193 0.050015 -0.055507 40.097100 -40.985400 0.000008 0.000006 6.219000 8.441590 -73.442800 -11.754300 -0.000006 -0.000006 -0.249191 -0.305398 -16.726700
0.000000 0.000000 0.000000 0.000000 0.000000 -0.000000 -92.027100 89.598000 190.729000 101.296000 85.306800 -9.201290 15.735700 0.000005 -0.000001 65.308300 85.015800 -63.181200 8.984550 -0.406207 -0.000000 1.378340 -4.280690 4.303750 16.377300 -0.000001 -0.000001 -4.483590 2.434760 1.805120 6.456720 -0.000001 -0.000000 -13.822200 5.752860 7.546810 12.994200 -0.242716 4.980390 -90.620900 2.500300 -76.048400 5.348090 -0.000007 -0.000001 -61.667500 21.749600 -24.461900 24.328600 0.000019 0.000005 11.467100 10.851200 -47.136600 22.291600 -0.000001 0.000005 16.656500 5.266980 0.978685 12.994500 -0.242716 -4.980390 87.583200 11.210100 -77.750800 -5.348130 -0.000001 -0.000004 -61.303500 13.738700 4.815760 -24.328900 0.000322 -0.000009 1.613340 7.426190 -12.301800 -22.291500 -0.000108 -0.000004 14.609500 5.324430 -0.622973 -2.192480 -6.469440 -0.000000 -171.091000 -3.427280 2.737690 39.081100 -0.000007 -0.000012 0.060920 -0.067729 41.969100 40.985400 -0.000006 -0.000013 1.403330 13.852900 -60.823300 11.754300 -0.000000 0.000003 -0.036511 -0.245903 -26.668700 -2.192510 6.469440 -0.000001 176.929000 18.932100 167.693000 -39.081100 -0.002282 -0.040193 0.040948 -0.047829 38.219500 -40.985400 0.000008 0.000006 6.518180 8.525150 -74.136700 -11.754300 -0.000006 -0.000006 -0.522062 -0.641357 -16.737900
0.000000 0.000000 0.000000 0.000000 0.000000 -0.000000 -89.958000 89.803100 191.620000 106.302000 85.644300 -13.247400 15.735700 0.000005 -0.000001 70.330500 84.811000 -68.251500 8.984550 -0.406207 -0.000000 2.078920 -3.593940 4.220350 16.377300 -0.000001 -0.000001 -4.660240 2.280050 2.358760 6.456720 -0.000001 -0.000000 -14.014600 5.078880 8.733730 12.994200 -0.242716 4.980390 -90.703500 2.818330 -75.978000 5.348090 -0.000007 -0.000001 -61.362300 25.274000 -22.611400 24.328600 0.000019 0.000005 12.324500 10.939100 -49.022800 22.291600 -0.000001 0.000005 15.068500 5.283820 0.518979 12.994500 -0.242716 -4.980390 87.648000 11.349300 -78.210900 -5.348130 -0.000001 -0.000004 -61.781600 15.333900 3.368370 -24.328900 0.000322 -0.000009 1.686440 7.061740 -13.476700 -22.291500 -0.000108 -0.000004 14.798500 5.337530 -1.006240 -2.192480 -6.469440 -0.000000 -170.887000 -3.869130 -0.847738 39.081100 -0.000007 -0.000012 0.114256 -0.097730 49.456800 40.985400 -0.000006 -0.000013 -3.377770 10.852500 -55.188500 11.754300 -0.000000 0.000003 -0.006925 -0.079023 -19.793700 -2.192510 6.469440 -0.000001 176.212000 19.332600 171.333000 -39.081100 -0.002282 -0.040193 0.032044 -0.038838 36.517500 -40.985400 0.000008 0.000006 6.594190 8.557650 -74.954300 -11.754300 -0.000006 -0.000006 -0.667015 -0.822310 -16.711100
0.000000 0.000000 0.000000 0.000000 0.000000 -0.000000 -88.019900 89.963900 192.367000 107.234000 85.967600 -13.533800 15.735700 0.000005 -0.000001 75.126100 84.648400 -73.007100 8.984550 -0.406207 -0.000000 2.637550 -2.839850 4.299610 16.377300 -0.000001 -0.000001 -4.768610 2.288880 2.794010 6.456720 -0.000001 -0.000000 -13.931100 4.593790 9.668500 12.994200 -0.242716 4.980390 -90.783100 3.114770 -75.881100 5.348090 -0.000007 -0.000001 -61.656600 28.700200 -20.476200 24.328600 0.000019 0.000005 14.168600 12.205200 -50.056100 22.291600 -0.000001 0.000005 13.681900 5.307250 -0.133032 12.994500 -0.242716 -4.980390 87.771600 11.374600 -78.838700 -5.348130 -0.000001 -0.000004 -61.985100 17.324900 1.203290 -24.328900 0.000322 -0.000009 1.726700 6.744230 -14.404900 -22.291500 -0.000108 -0.000004 14.826700 5.345500 -1.242710 -2.192480 -6.469440 -0.000000 -170.839000 -5.331800 -3.888710 39.081100 -0.000007 -0.000012 0.142239 -0.098915 55.183600 40.985400 -0.000006 -0.000013 -2.495280 5.160930 -56.497600 11.754300 -0.000000 0.000003 -0.004352 -0.055060 -18.816700 -2.192510 6.469440 -0.000001 175.816000 20.020400 174.487000 -39.081100 -0.002282 -0.040193 0.024885 -0.031025 34.838600 -40.985400 0.000008 0.000006 6.809350 8.892140 -75.332900 -11.754300 -0.000006 -0.000006 -0.926750 -1.147010 -16.907200
